<mxfile host="Electron" modified="2024-04-08T13:32:49.793Z" agent="Mozilla/5.0 (Windows NT 10.0; Win64; x64) AppleWebKit/537.36 (KHTML, like Gecko) draw.io/24.0.4 Chrome/120.0.6099.109 Electron/28.1.0 Safari/537.36" etag="CmC_BdbxX_sJJsg-3Lsm" version="24.0.4" type="device">
  <diagram name="PÃ¡gina-1" id="RWDRBDLVdoD3AX21-Vfr">
    <mxGraphModel dx="1120" dy="524" grid="1" gridSize="10" guides="1" tooltips="1" connect="1" arrows="1" fold="1" page="1" pageScale="1" pageWidth="827" pageHeight="1169" math="0" shadow="0">
      <root>
        <mxCell id="0" />
        <mxCell id="1" parent="0" />
        <mxCell id="01-Ti9sMeaYDdyQARpEQ-1" value="Equipo" style="rounded=0;whiteSpace=wrap;html=1;" vertex="1" parent="1">
          <mxGeometry x="170" y="470" width="70" height="20" as="geometry" />
        </mxCell>
        <mxCell id="01-Ti9sMeaYDdyQARpEQ-3" value="&lt;u&gt;Nro&lt;/u&gt;" style="ellipse;whiteSpace=wrap;html=1;" vertex="1" parent="1">
          <mxGeometry x="100" y="420" width="50" height="30" as="geometry" />
        </mxCell>
        <mxCell id="01-Ti9sMeaYDdyQARpEQ-4" value="Nro serie" style="ellipse;whiteSpace=wrap;html=1;" vertex="1" parent="1">
          <mxGeometry x="80" y="460" width="60" height="30" as="geometry" />
        </mxCell>
        <mxCell id="01-Ti9sMeaYDdyQARpEQ-6" value="Modelo" style="ellipse;whiteSpace=wrap;html=1;" vertex="1" parent="1">
          <mxGeometry x="75" y="500" width="70" height="20" as="geometry" />
        </mxCell>
        <mxCell id="01-Ti9sMeaYDdyQARpEQ-7" value="" style="endArrow=none;html=1;rounded=0;exitX=1;exitY=0.5;exitDx=0;exitDy=0;entryX=0;entryY=0;entryDx=0;entryDy=0;" edge="1" parent="1" source="01-Ti9sMeaYDdyQARpEQ-3" target="01-Ti9sMeaYDdyQARpEQ-1">
          <mxGeometry width="50" height="50" relative="1" as="geometry">
            <mxPoint x="540" y="610" as="sourcePoint" />
            <mxPoint x="590" y="560" as="targetPoint" />
          </mxGeometry>
        </mxCell>
        <mxCell id="01-Ti9sMeaYDdyQARpEQ-8" value="" style="endArrow=none;html=1;rounded=0;exitX=1;exitY=0.5;exitDx=0;exitDy=0;entryX=0;entryY=0;entryDx=0;entryDy=0;" edge="1" parent="1" source="01-Ti9sMeaYDdyQARpEQ-4" target="01-Ti9sMeaYDdyQARpEQ-1">
          <mxGeometry width="50" height="50" relative="1" as="geometry">
            <mxPoint x="160" y="445" as="sourcePoint" />
            <mxPoint x="170" y="480" as="targetPoint" />
          </mxGeometry>
        </mxCell>
        <mxCell id="01-Ti9sMeaYDdyQARpEQ-10" value="" style="endArrow=none;html=1;rounded=0;exitX=1;exitY=0.5;exitDx=0;exitDy=0;entryX=0;entryY=0;entryDx=0;entryDy=0;" edge="1" parent="1" source="01-Ti9sMeaYDdyQARpEQ-6" target="01-Ti9sMeaYDdyQARpEQ-1">
          <mxGeometry width="50" height="50" relative="1" as="geometry">
            <mxPoint x="150" y="520" as="sourcePoint" />
            <mxPoint x="170" y="485" as="targetPoint" />
          </mxGeometry>
        </mxCell>
        <mxCell id="01-Ti9sMeaYDdyQARpEQ-11" value="Tipo" style="rounded=0;whiteSpace=wrap;html=1;" vertex="1" parent="1">
          <mxGeometry x="395" y="590" width="60" height="20" as="geometry" />
        </mxCell>
        <mxCell id="01-Ti9sMeaYDdyQARpEQ-12" value="&lt;u&gt;Nombre&lt;/u&gt;" style="ellipse;whiteSpace=wrap;html=1;" vertex="1" parent="1">
          <mxGeometry x="465" y="610" width="80" height="30" as="geometry" />
        </mxCell>
        <mxCell id="01-Ti9sMeaYDdyQARpEQ-13" value="" style="endArrow=none;html=1;rounded=0;exitX=1;exitY=1;exitDx=0;exitDy=0;entryX=0;entryY=0.5;entryDx=0;entryDy=0;" edge="1" parent="1" source="01-Ti9sMeaYDdyQARpEQ-11" target="01-Ti9sMeaYDdyQARpEQ-12">
          <mxGeometry width="50" height="50" relative="1" as="geometry">
            <mxPoint x="515" y="610" as="sourcePoint" />
            <mxPoint x="565" y="560" as="targetPoint" />
          </mxGeometry>
        </mxCell>
        <mxCell id="01-Ti9sMeaYDdyQARpEQ-14" value="Seccion" style="whiteSpace=wrap;html=1;" vertex="1" parent="1">
          <mxGeometry x="385" y="470" width="80" height="20" as="geometry" />
        </mxCell>
        <mxCell id="01-Ti9sMeaYDdyQARpEQ-15" value="es de" style="rhombus;whiteSpace=wrap;html=1;" vertex="1" parent="1">
          <mxGeometry x="175" y="580" width="60" height="40" as="geometry" />
        </mxCell>
        <mxCell id="01-Ti9sMeaYDdyQARpEQ-16" value="" style="endArrow=classic;html=1;rounded=0;exitX=1;exitY=0.5;exitDx=0;exitDy=0;entryX=0;entryY=0.5;entryDx=0;entryDy=0;" edge="1" parent="1" source="01-Ti9sMeaYDdyQARpEQ-15" target="01-Ti9sMeaYDdyQARpEQ-11">
          <mxGeometry width="50" height="50" relative="1" as="geometry">
            <mxPoint x="265" y="530" as="sourcePoint" />
            <mxPoint x="485" y="560" as="targetPoint" />
          </mxGeometry>
        </mxCell>
        <mxCell id="01-Ti9sMeaYDdyQARpEQ-17" value="" style="endArrow=none;html=1;rounded=0;exitX=0.5;exitY=0;exitDx=0;exitDy=0;entryX=0.5;entryY=1;entryDx=0;entryDy=0;" edge="1" parent="1" source="01-Ti9sMeaYDdyQARpEQ-15" target="01-Ti9sMeaYDdyQARpEQ-1">
          <mxGeometry width="50" height="50" relative="1" as="geometry">
            <mxPoint x="540" y="610" as="sourcePoint" />
            <mxPoint x="590" y="560" as="targetPoint" />
          </mxGeometry>
        </mxCell>
        <mxCell id="01-Ti9sMeaYDdyQARpEQ-18" value="repara" style="rhombus;whiteSpace=wrap;html=1;" vertex="1" parent="1">
          <mxGeometry x="390" y="530" width="70" height="40" as="geometry" />
        </mxCell>
        <mxCell id="01-Ti9sMeaYDdyQARpEQ-19" value="" style="endArrow=classic;html=1;rounded=0;entryX=0.5;entryY=1;entryDx=0;entryDy=0;exitX=0.5;exitY=0;exitDx=0;exitDy=0;" edge="1" parent="1" source="01-Ti9sMeaYDdyQARpEQ-18" target="01-Ti9sMeaYDdyQARpEQ-14">
          <mxGeometry width="50" height="50" relative="1" as="geometry">
            <mxPoint x="515" y="610" as="sourcePoint" />
            <mxPoint x="565" y="560" as="targetPoint" />
          </mxGeometry>
        </mxCell>
        <mxCell id="01-Ti9sMeaYDdyQARpEQ-20" value="" style="endArrow=classic;html=1;rounded=0;exitX=0.5;exitY=1;exitDx=0;exitDy=0;entryX=0.5;entryY=0;entryDx=0;entryDy=0;" edge="1" parent="1" source="01-Ti9sMeaYDdyQARpEQ-18" target="01-Ti9sMeaYDdyQARpEQ-11">
          <mxGeometry width="50" height="50" relative="1" as="geometry">
            <mxPoint x="515" y="610" as="sourcePoint" />
            <mxPoint x="565" y="560" as="targetPoint" />
          </mxGeometry>
        </mxCell>
        <mxCell id="01-Ti9sMeaYDdyQARpEQ-22" value="&lt;u&gt;Nombre&lt;/u&gt;" style="ellipse;whiteSpace=wrap;html=1;" vertex="1" parent="1">
          <mxGeometry x="475" y="395" width="60" height="20" as="geometry" />
        </mxCell>
        <mxCell id="01-Ti9sMeaYDdyQARpEQ-23" value="" style="endArrow=none;html=1;rounded=0;exitX=0;exitY=1;exitDx=0;exitDy=0;entryX=0.5;entryY=0;entryDx=0;entryDy=0;" edge="1" parent="1" source="01-Ti9sMeaYDdyQARpEQ-22">
          <mxGeometry width="50" height="50" relative="1" as="geometry">
            <mxPoint x="475" y="610" as="sourcePoint" />
            <mxPoint x="465" y="470" as="targetPoint" />
          </mxGeometry>
        </mxCell>
        <mxCell id="01-Ti9sMeaYDdyQARpEQ-24" value="Telefono" style="ellipse;whiteSpace=wrap;html=1;" vertex="1" parent="1">
          <mxGeometry x="495" y="415" width="60" height="20" as="geometry" />
        </mxCell>
        <mxCell id="01-Ti9sMeaYDdyQARpEQ-25" value="" style="endArrow=none;html=1;rounded=0;exitX=0.5;exitY=0;exitDx=0;exitDy=0;entryX=0.5;entryY=1;entryDx=0;entryDy=0;" edge="1" parent="1" target="01-Ti9sMeaYDdyQARpEQ-24">
          <mxGeometry width="50" height="50" relative="1" as="geometry">
            <mxPoint x="465" y="470" as="sourcePoint" />
            <mxPoint x="615" y="440" as="targetPoint" />
          </mxGeometry>
        </mxCell>
        <mxCell id="01-Ti9sMeaYDdyQARpEQ-26" value="Mecanico" style="rounded=0;whiteSpace=wrap;html=1;" vertex="1" parent="1">
          <mxGeometry x="605" y="360" width="80" height="20" as="geometry" />
        </mxCell>
        <mxCell id="01-Ti9sMeaYDdyQARpEQ-30" value="Cantidad" style="ellipse;whiteSpace=wrap;html=1;" vertex="1" parent="1">
          <mxGeometry x="519" y="435" width="55" height="30" as="geometry" />
        </mxCell>
        <mxCell id="01-Ti9sMeaYDdyQARpEQ-31" value="" style="endArrow=none;html=1;rounded=0;exitX=0.5;exitY=0;exitDx=0;exitDy=0;entryX=0;entryY=1;entryDx=0;entryDy=0;" edge="1" parent="1" target="01-Ti9sMeaYDdyQARpEQ-30">
          <mxGeometry width="50" height="50" relative="1" as="geometry">
            <mxPoint x="465" y="470" as="sourcePoint" />
            <mxPoint x="615" y="440" as="targetPoint" />
          </mxGeometry>
        </mxCell>
        <mxCell id="01-Ti9sMeaYDdyQARpEQ-32" value="Trabaja" style="rhombus;whiteSpace=wrap;html=1;" vertex="1" parent="1">
          <mxGeometry x="615" y="460" width="60" height="40" as="geometry" />
        </mxCell>
        <mxCell id="01-Ti9sMeaYDdyQARpEQ-33" value="" style="endArrow=classic;html=1;rounded=0;entryX=1;entryY=0.5;entryDx=0;entryDy=0;exitX=0;exitY=0.5;exitDx=0;exitDy=0;" edge="1" parent="1" source="01-Ti9sMeaYDdyQARpEQ-32" target="01-Ti9sMeaYDdyQARpEQ-14">
          <mxGeometry width="50" height="50" relative="1" as="geometry">
            <mxPoint x="525" y="490" as="sourcePoint" />
            <mxPoint x="575" y="440" as="targetPoint" />
          </mxGeometry>
        </mxCell>
        <mxCell id="01-Ti9sMeaYDdyQARpEQ-34" value="" style="endArrow=none;html=1;rounded=0;entryX=0.5;entryY=1;entryDx=0;entryDy=0;exitX=0.5;exitY=0;exitDx=0;exitDy=0;" edge="1" parent="1" source="01-Ti9sMeaYDdyQARpEQ-32" target="01-Ti9sMeaYDdyQARpEQ-26">
          <mxGeometry width="50" height="50" relative="1" as="geometry">
            <mxPoint x="455" y="490" as="sourcePoint" />
            <mxPoint x="505" y="440" as="targetPoint" />
          </mxGeometry>
        </mxCell>
        <mxCell id="01-Ti9sMeaYDdyQARpEQ-35" value="Fecha de ingreso" style="ellipse;whiteSpace=wrap;html=1;" vertex="1" parent="1">
          <mxGeometry x="675" y="490" width="110" height="30" as="geometry" />
        </mxCell>
        <mxCell id="01-Ti9sMeaYDdyQARpEQ-36" value="" style="endArrow=none;html=1;rounded=0;entryX=1;entryY=1;entryDx=0;entryDy=0;exitX=0;exitY=0.5;exitDx=0;exitDy=0;" edge="1" parent="1" source="01-Ti9sMeaYDdyQARpEQ-35" target="01-Ti9sMeaYDdyQARpEQ-32">
          <mxGeometry width="50" height="50" relative="1" as="geometry">
            <mxPoint x="455" y="490" as="sourcePoint" />
            <mxPoint x="505" y="440" as="targetPoint" />
          </mxGeometry>
        </mxCell>
        <mxCell id="01-Ti9sMeaYDdyQARpEQ-38" value="" style="endArrow=none;html=1;rounded=0;entryX=1;entryY=1;entryDx=0;entryDy=0;exitX=0;exitY=0.5;exitDx=0;exitDy=0;" edge="1" parent="1" target="01-Ti9sMeaYDdyQARpEQ-32">
          <mxGeometry width="50" height="50" relative="1" as="geometry">
            <mxPoint x="680" y="550" as="sourcePoint" />
            <mxPoint x="505" y="440" as="targetPoint" />
          </mxGeometry>
        </mxCell>
        <mxCell id="01-Ti9sMeaYDdyQARpEQ-39" value="Antiguedad" style="ellipse;whiteSpace=wrap;html=1;align=center;dashed=1;" vertex="1" parent="1">
          <mxGeometry x="665" y="540" width="100" height="30" as="geometry" />
        </mxCell>
        <mxCell id="01-Ti9sMeaYDdyQARpEQ-40" value="&lt;u&gt;Cuil&lt;/u&gt;" style="ellipse;whiteSpace=wrap;html=1;align=center;" vertex="1" parent="1">
          <mxGeometry x="695" y="295" width="40" height="20" as="geometry" />
        </mxCell>
        <mxCell id="01-Ti9sMeaYDdyQARpEQ-41" value="Nombre" style="ellipse;whiteSpace=wrap;html=1;align=center;" vertex="1" parent="1">
          <mxGeometry x="710" y="330" width="70" height="20" as="geometry" />
        </mxCell>
        <mxCell id="01-Ti9sMeaYDdyQARpEQ-42" value="Apellido" style="ellipse;whiteSpace=wrap;html=1;align=center;" vertex="1" parent="1">
          <mxGeometry x="715" y="360" width="70" height="20" as="geometry" />
        </mxCell>
        <mxCell id="01-Ti9sMeaYDdyQARpEQ-43" value="Fecha de nacimiento" style="ellipse;whiteSpace=wrap;html=1;align=center;" vertex="1" parent="1">
          <mxGeometry x="693" y="385" width="134" height="15" as="geometry" />
        </mxCell>
        <mxCell id="01-Ti9sMeaYDdyQARpEQ-44" value="Direccion" style="ellipse;whiteSpace=wrap;html=1;align=center;" vertex="1" parent="1">
          <mxGeometry x="695" y="410" width="60" height="20" as="geometry" />
        </mxCell>
        <mxCell id="01-Ti9sMeaYDdyQARpEQ-45" value="" style="endArrow=none;html=1;rounded=0;entryX=0;entryY=0.5;entryDx=0;entryDy=0;exitX=1;exitY=1;exitDx=0;exitDy=0;" edge="1" parent="1" source="01-Ti9sMeaYDdyQARpEQ-26" target="01-Ti9sMeaYDdyQARpEQ-44">
          <mxGeometry width="50" height="50" relative="1" as="geometry">
            <mxPoint x="525" y="490" as="sourcePoint" />
            <mxPoint x="575" y="440" as="targetPoint" />
          </mxGeometry>
        </mxCell>
        <mxCell id="01-Ti9sMeaYDdyQARpEQ-46" value="" style="endArrow=none;html=1;rounded=0;entryX=0;entryY=0.5;entryDx=0;entryDy=0;exitX=1;exitY=1;exitDx=0;exitDy=0;" edge="1" parent="1" source="01-Ti9sMeaYDdyQARpEQ-26" target="01-Ti9sMeaYDdyQARpEQ-43">
          <mxGeometry width="50" height="50" relative="1" as="geometry">
            <mxPoint x="525" y="490" as="sourcePoint" />
            <mxPoint x="575" y="440" as="targetPoint" />
          </mxGeometry>
        </mxCell>
        <mxCell id="01-Ti9sMeaYDdyQARpEQ-47" value="" style="endArrow=none;html=1;rounded=0;entryX=0;entryY=0.5;entryDx=0;entryDy=0;exitX=1;exitY=1;exitDx=0;exitDy=0;" edge="1" parent="1" source="01-Ti9sMeaYDdyQARpEQ-26" target="01-Ti9sMeaYDdyQARpEQ-42">
          <mxGeometry width="50" height="50" relative="1" as="geometry">
            <mxPoint x="525" y="490" as="sourcePoint" />
            <mxPoint x="575" y="440" as="targetPoint" />
          </mxGeometry>
        </mxCell>
        <mxCell id="01-Ti9sMeaYDdyQARpEQ-48" value="" style="endArrow=none;html=1;rounded=0;entryX=0;entryY=0.5;entryDx=0;entryDy=0;exitX=1;exitY=1;exitDx=0;exitDy=0;" edge="1" parent="1" source="01-Ti9sMeaYDdyQARpEQ-26" target="01-Ti9sMeaYDdyQARpEQ-41">
          <mxGeometry width="50" height="50" relative="1" as="geometry">
            <mxPoint x="685" y="400" as="sourcePoint" />
            <mxPoint x="575" y="440" as="targetPoint" />
          </mxGeometry>
        </mxCell>
        <mxCell id="01-Ti9sMeaYDdyQARpEQ-49" value="" style="endArrow=none;html=1;rounded=0;entryX=0.5;entryY=1;entryDx=0;entryDy=0;exitX=1;exitY=1;exitDx=0;exitDy=0;" edge="1" parent="1" source="01-Ti9sMeaYDdyQARpEQ-26" target="01-Ti9sMeaYDdyQARpEQ-40">
          <mxGeometry width="50" height="50" relative="1" as="geometry">
            <mxPoint x="525" y="490" as="sourcePoint" />
            <mxPoint x="575" y="440" as="targetPoint" />
          </mxGeometry>
        </mxCell>
        <mxCell id="01-Ti9sMeaYDdyQARpEQ-50" value="Bahia" style="rounded=0;whiteSpace=wrap;html=1;" vertex="1" parent="1">
          <mxGeometry x="395" y="310" width="60" height="20" as="geometry" />
        </mxCell>
        <mxCell id="01-Ti9sMeaYDdyQARpEQ-51" value="&lt;u&gt;Nro&lt;/u&gt;" style="ellipse;whiteSpace=wrap;html=1;" vertex="1" parent="1">
          <mxGeometry x="350" y="240" width="40" height="30" as="geometry" />
        </mxCell>
        <mxCell id="01-Ti9sMeaYDdyQARpEQ-52" value="" style="endArrow=none;html=1;rounded=0;entryX=1;entryY=1;entryDx=0;entryDy=0;exitX=0.25;exitY=0;exitDx=0;exitDy=0;" edge="1" parent="1" source="01-Ti9sMeaYDdyQARpEQ-50" target="01-Ti9sMeaYDdyQARpEQ-51">
          <mxGeometry width="50" height="50" relative="1" as="geometry">
            <mxPoint x="675" y="420" as="sourcePoint" />
            <mxPoint x="725" y="370" as="targetPoint" />
          </mxGeometry>
        </mxCell>
        <mxCell id="01-Ti9sMeaYDdyQARpEQ-53" value="Elementos" style="ellipse;shape=doubleEllipse;margin=3;whiteSpace=wrap;html=1;align=center;" vertex="1" parent="1">
          <mxGeometry x="415" y="235" width="80" height="40" as="geometry" />
        </mxCell>
        <mxCell id="01-Ti9sMeaYDdyQARpEQ-54" value="" style="endArrow=none;html=1;rounded=0;exitX=0.25;exitY=0;exitDx=0;exitDy=0;entryX=0.5;entryY=1;entryDx=0;entryDy=0;" edge="1" parent="1" source="01-Ti9sMeaYDdyQARpEQ-50" target="01-Ti9sMeaYDdyQARpEQ-53">
          <mxGeometry width="50" height="50" relative="1" as="geometry">
            <mxPoint x="675" y="420" as="sourcePoint" />
            <mxPoint x="725" y="370" as="targetPoint" />
          </mxGeometry>
        </mxCell>
        <mxCell id="01-Ti9sMeaYDdyQARpEQ-57" style="edgeStyle=orthogonalEdgeStyle;rounded=0;orthogonalLoop=1;jettySize=auto;html=1;entryX=0.5;entryY=0;entryDx=0;entryDy=0;" edge="1" parent="1" source="01-Ti9sMeaYDdyQARpEQ-56" target="01-Ti9sMeaYDdyQARpEQ-14">
          <mxGeometry relative="1" as="geometry" />
        </mxCell>
        <mxCell id="01-Ti9sMeaYDdyQARpEQ-56" value="dentro" style="rhombus;whiteSpace=wrap;html=1;" vertex="1" parent="1">
          <mxGeometry x="395" y="370" width="60" height="50" as="geometry" />
        </mxCell>
        <mxCell id="01-Ti9sMeaYDdyQARpEQ-58" value="" style="endArrow=none;html=1;rounded=0;exitX=0.5;exitY=0;exitDx=0;exitDy=0;entryX=0.5;entryY=1;entryDx=0;entryDy=0;" edge="1" parent="1" source="01-Ti9sMeaYDdyQARpEQ-56" target="01-Ti9sMeaYDdyQARpEQ-50">
          <mxGeometry width="50" height="50" relative="1" as="geometry">
            <mxPoint x="505" y="370" as="sourcePoint" />
            <mxPoint x="555" y="320" as="targetPoint" />
          </mxGeometry>
        </mxCell>
        <mxCell id="01-Ti9sMeaYDdyQARpEQ-59" value="Orden de trabajo" style="rounded=0;whiteSpace=wrap;html=1;" vertex="1" parent="1">
          <mxGeometry x="165" y="340" width="80" height="30" as="geometry" />
        </mxCell>
        <mxCell id="01-Ti9sMeaYDdyQARpEQ-61" value="&lt;u&gt;Codigo&lt;/u&gt;" style="ellipse;whiteSpace=wrap;html=1;" vertex="1" parent="1">
          <mxGeometry x="59" y="340" width="60" height="20" as="geometry" />
        </mxCell>
        <mxCell id="01-Ti9sMeaYDdyQARpEQ-62" value="" style="endArrow=none;html=1;rounded=0;exitX=0;exitY=0;exitDx=0;exitDy=0;entryX=1;entryY=0.5;entryDx=0;entryDy=0;" edge="1" parent="1" source="01-Ti9sMeaYDdyQARpEQ-59" target="01-Ti9sMeaYDdyQARpEQ-61">
          <mxGeometry width="50" height="50" relative="1" as="geometry">
            <mxPoint x="505" y="470" as="sourcePoint" />
            <mxPoint x="555" y="420" as="targetPoint" />
          </mxGeometry>
        </mxCell>
        <mxCell id="01-Ti9sMeaYDdyQARpEQ-63" value="Insumos" style="rounded=0;whiteSpace=wrap;html=1;" vertex="1" parent="1">
          <mxGeometry x="80" y="120" width="80" height="30" as="geometry" />
        </mxCell>
        <mxCell id="01-Ti9sMeaYDdyQARpEQ-64" value="Atiende" style="rhombus;whiteSpace=wrap;html=1;" vertex="1" parent="1">
          <mxGeometry x="275" y="380" width="80" height="40" as="geometry" />
        </mxCell>
        <mxCell id="01-Ti9sMeaYDdyQARpEQ-65" value="" style="endArrow=none;html=1;rounded=0;exitX=0.5;exitY=0;exitDx=0;exitDy=0;entryX=1;entryY=0.5;entryDx=0;entryDy=0;" edge="1" parent="1" source="01-Ti9sMeaYDdyQARpEQ-64" target="01-Ti9sMeaYDdyQARpEQ-59">
          <mxGeometry width="50" height="50" relative="1" as="geometry">
            <mxPoint x="485" y="370" as="sourcePoint" />
            <mxPoint x="535" y="320" as="targetPoint" />
            <Array as="points">
              <mxPoint x="315" y="355" />
            </Array>
          </mxGeometry>
        </mxCell>
        <mxCell id="01-Ti9sMeaYDdyQARpEQ-66" value="" style="endArrow=classic;html=1;rounded=0;exitX=0.5;exitY=1;exitDx=0;exitDy=0;entryX=0;entryY=0.5;entryDx=0;entryDy=0;" edge="1" parent="1" source="01-Ti9sMeaYDdyQARpEQ-64" target="01-Ti9sMeaYDdyQARpEQ-14">
          <mxGeometry width="50" height="50" relative="1" as="geometry">
            <mxPoint x="485" y="470" as="sourcePoint" />
            <mxPoint x="535" y="420" as="targetPoint" />
            <Array as="points">
              <mxPoint x="315" y="480" />
            </Array>
          </mxGeometry>
        </mxCell>
        <mxCell id="01-Ti9sMeaYDdyQARpEQ-67" value="Corresponde" style="rhombus;whiteSpace=wrap;html=1;" vertex="1" parent="1">
          <mxGeometry x="160" y="400" width="90" height="40" as="geometry" />
        </mxCell>
        <mxCell id="01-Ti9sMeaYDdyQARpEQ-68" value="" style="endArrow=classic;html=1;rounded=0;exitX=0.5;exitY=1;exitDx=0;exitDy=0;entryX=0.5;entryY=0;entryDx=0;entryDy=0;" edge="1" parent="1" source="01-Ti9sMeaYDdyQARpEQ-67" target="01-Ti9sMeaYDdyQARpEQ-1">
          <mxGeometry width="50" height="50" relative="1" as="geometry">
            <mxPoint x="485" y="470" as="sourcePoint" />
            <mxPoint x="535" y="420" as="targetPoint" />
          </mxGeometry>
        </mxCell>
        <mxCell id="01-Ti9sMeaYDdyQARpEQ-69" value="" style="endArrow=none;html=1;rounded=0;exitX=0.5;exitY=0;exitDx=0;exitDy=0;entryX=0.5;entryY=1;entryDx=0;entryDy=0;" edge="1" parent="1" source="01-Ti9sMeaYDdyQARpEQ-67" target="01-Ti9sMeaYDdyQARpEQ-59">
          <mxGeometry width="50" height="50" relative="1" as="geometry">
            <mxPoint x="485" y="470" as="sourcePoint" />
            <mxPoint x="535" y="420" as="targetPoint" />
          </mxGeometry>
        </mxCell>
        <mxCell id="01-Ti9sMeaYDdyQARpEQ-70" value="Fecha" style="ellipse;whiteSpace=wrap;html=1;" vertex="1" parent="1">
          <mxGeometry x="14" y="320" width="45" height="20" as="geometry" />
        </mxCell>
        <mxCell id="01-Ti9sMeaYDdyQARpEQ-71" value="Hora" style="ellipse;whiteSpace=wrap;html=1;" vertex="1" parent="1">
          <mxGeometry x="80" y="275" width="50" height="20" as="geometry" />
        </mxCell>
        <mxCell id="01-Ti9sMeaYDdyQARpEQ-72" value="" style="endArrow=none;html=1;rounded=0;exitX=0;exitY=0;exitDx=0;exitDy=0;entryX=1;entryY=0.5;entryDx=0;entryDy=0;" edge="1" parent="1" source="01-Ti9sMeaYDdyQARpEQ-59" target="01-Ti9sMeaYDdyQARpEQ-70">
          <mxGeometry width="50" height="50" relative="1" as="geometry">
            <mxPoint x="485" y="470" as="sourcePoint" />
            <mxPoint x="535" y="420" as="targetPoint" />
          </mxGeometry>
        </mxCell>
        <mxCell id="01-Ti9sMeaYDdyQARpEQ-73" value="" style="endArrow=none;html=1;rounded=0;exitX=0;exitY=0;exitDx=0;exitDy=0;entryX=0.5;entryY=1;entryDx=0;entryDy=0;" edge="1" parent="1" source="01-Ti9sMeaYDdyQARpEQ-59" target="01-Ti9sMeaYDdyQARpEQ-71">
          <mxGeometry width="50" height="50" relative="1" as="geometry">
            <mxPoint x="485" y="470" as="sourcePoint" />
            <mxPoint x="535" y="420" as="targetPoint" />
          </mxGeometry>
        </mxCell>
        <mxCell id="01-Ti9sMeaYDdyQARpEQ-74" value="Problema" style="ellipse;whiteSpace=wrap;html=1;" vertex="1" parent="1">
          <mxGeometry x="5" y="370" width="70" height="20" as="geometry" />
        </mxCell>
        <mxCell id="01-Ti9sMeaYDdyQARpEQ-75" value="" style="endArrow=none;html=1;rounded=0;exitX=1;exitY=0.5;exitDx=0;exitDy=0;entryX=0;entryY=0;entryDx=0;entryDy=0;" edge="1" parent="1" source="01-Ti9sMeaYDdyQARpEQ-74" target="01-Ti9sMeaYDdyQARpEQ-59">
          <mxGeometry width="50" height="50" relative="1" as="geometry">
            <mxPoint x="485" y="470" as="sourcePoint" />
            <mxPoint x="535" y="420" as="targetPoint" />
          </mxGeometry>
        </mxCell>
        <mxCell id="01-Ti9sMeaYDdyQARpEQ-76" value="Reparado" style="rhombus;whiteSpace=wrap;html=1;" vertex="1" parent="1">
          <mxGeometry x="285" y="302.5" width="70" height="35" as="geometry" />
        </mxCell>
        <mxCell id="01-Ti9sMeaYDdyQARpEQ-77" value="" style="endArrow=classic;html=1;rounded=0;exitX=1;exitY=0.5;exitDx=0;exitDy=0;entryX=0;entryY=0.5;entryDx=0;entryDy=0;" edge="1" parent="1" source="01-Ti9sMeaYDdyQARpEQ-76" target="01-Ti9sMeaYDdyQARpEQ-50">
          <mxGeometry width="50" height="50" relative="1" as="geometry">
            <mxPoint x="485" y="470" as="sourcePoint" />
            <mxPoint x="535" y="420" as="targetPoint" />
          </mxGeometry>
        </mxCell>
        <mxCell id="01-Ti9sMeaYDdyQARpEQ-78" value="" style="endArrow=none;html=1;rounded=0;exitX=0.5;exitY=0;exitDx=0;exitDy=0;entryX=0;entryY=0.5;entryDx=0;entryDy=0;" edge="1" parent="1" source="01-Ti9sMeaYDdyQARpEQ-59" target="01-Ti9sMeaYDdyQARpEQ-76">
          <mxGeometry width="50" height="50" relative="1" as="geometry">
            <mxPoint x="485" y="470" as="sourcePoint" />
            <mxPoint x="535" y="420" as="targetPoint" />
            <Array as="points">
              <mxPoint x="205" y="320" />
            </Array>
          </mxGeometry>
        </mxCell>
        <mxCell id="01-Ti9sMeaYDdyQARpEQ-79" value="Responsable" style="rhombus;whiteSpace=wrap;html=1;" vertex="1" parent="1">
          <mxGeometry x="385" y="180" width="90" height="40" as="geometry" />
        </mxCell>
        <mxCell id="01-Ti9sMeaYDdyQARpEQ-80" value="" style="endArrow=none;html=1;rounded=0;exitX=0.363;exitY=0;exitDx=0;exitDy=0;entryX=0;entryY=0.5;entryDx=0;entryDy=0;exitPerimeter=0;" edge="1" parent="1" source="01-Ti9sMeaYDdyQARpEQ-59" target="01-Ti9sMeaYDdyQARpEQ-79">
          <mxGeometry width="50" height="50" relative="1" as="geometry">
            <mxPoint x="485" y="370" as="sourcePoint" />
            <mxPoint x="535" y="320" as="targetPoint" />
            <Array as="points">
              <mxPoint x="195" y="200" />
            </Array>
          </mxGeometry>
        </mxCell>
        <mxCell id="01-Ti9sMeaYDdyQARpEQ-81" value="" style="endArrow=none;html=1;rounded=0;entryX=1;entryY=0.5;entryDx=0;entryDy=0;exitX=0.5;exitY=0;exitDx=0;exitDy=0;" edge="1" parent="1" source="01-Ti9sMeaYDdyQARpEQ-26" target="01-Ti9sMeaYDdyQARpEQ-79">
          <mxGeometry width="50" height="50" relative="1" as="geometry">
            <mxPoint x="485" y="370" as="sourcePoint" />
            <mxPoint x="535" y="320" as="targetPoint" />
            <Array as="points">
              <mxPoint x="645" y="200" />
            </Array>
          </mxGeometry>
        </mxCell>
        <mxCell id="01-Ti9sMeaYDdyQARpEQ-82" value="Utiliza" style="rhombus;whiteSpace=wrap;html=1;" vertex="1" parent="1">
          <mxGeometry x="140" y="245" width="45" height="50" as="geometry" />
        </mxCell>
        <mxCell id="01-Ti9sMeaYDdyQARpEQ-83" value="" style="endArrow=none;html=1;rounded=0;exitX=0;exitY=0;exitDx=0;exitDy=0;entryX=0.5;entryY=1;entryDx=0;entryDy=0;" edge="1" parent="1" source="01-Ti9sMeaYDdyQARpEQ-59" target="01-Ti9sMeaYDdyQARpEQ-82">
          <mxGeometry width="50" height="50" relative="1" as="geometry">
            <mxPoint x="485" y="370" as="sourcePoint" />
            <mxPoint x="535" y="320" as="targetPoint" />
          </mxGeometry>
        </mxCell>
        <mxCell id="01-Ti9sMeaYDdyQARpEQ-84" value="&lt;u&gt;Nombre&lt;/u&gt;" style="ellipse;whiteSpace=wrap;html=1;" vertex="1" parent="1">
          <mxGeometry x="185" y="60" width="90" height="20" as="geometry" />
        </mxCell>
        <mxCell id="01-Ti9sMeaYDdyQARpEQ-85" value="" style="endArrow=none;html=1;rounded=0;exitX=1;exitY=0;exitDx=0;exitDy=0;entryX=0;entryY=0.5;entryDx=0;entryDy=0;" edge="1" parent="1" source="01-Ti9sMeaYDdyQARpEQ-63" target="01-Ti9sMeaYDdyQARpEQ-84">
          <mxGeometry width="50" height="50" relative="1" as="geometry">
            <mxPoint x="489" y="310" as="sourcePoint" />
            <mxPoint x="539" y="260" as="targetPoint" />
          </mxGeometry>
        </mxCell>
        <mxCell id="01-Ti9sMeaYDdyQARpEQ-86" value="Marca" style="ellipse;whiteSpace=wrap;html=1;" vertex="1" parent="1">
          <mxGeometry x="219" y="100" width="50" height="20" as="geometry" />
        </mxCell>
        <mxCell id="01-Ti9sMeaYDdyQARpEQ-87" value="" style="endArrow=none;html=1;rounded=0;exitX=1;exitY=0;exitDx=0;exitDy=0;entryX=0;entryY=0.5;entryDx=0;entryDy=0;" edge="1" parent="1" source="01-Ti9sMeaYDdyQARpEQ-63" target="01-Ti9sMeaYDdyQARpEQ-86">
          <mxGeometry width="50" height="50" relative="1" as="geometry">
            <mxPoint x="489" y="310" as="sourcePoint" />
            <mxPoint x="539" y="260" as="targetPoint" />
          </mxGeometry>
        </mxCell>
        <mxCell id="01-Ti9sMeaYDdyQARpEQ-88" value="" style="endArrow=none;html=1;rounded=0;exitX=0.5;exitY=0;exitDx=0;exitDy=0;entryX=1;entryY=1;entryDx=0;entryDy=0;" edge="1" parent="1" source="01-Ti9sMeaYDdyQARpEQ-82" target="01-Ti9sMeaYDdyQARpEQ-63">
          <mxGeometry width="50" height="50" relative="1" as="geometry">
            <mxPoint x="489" y="310" as="sourcePoint" />
            <mxPoint x="539" y="260" as="targetPoint" />
          </mxGeometry>
        </mxCell>
        <mxCell id="01-Ti9sMeaYDdyQARpEQ-89" value="Cantidad" style="ellipse;whiteSpace=wrap;html=1;" vertex="1" parent="1">
          <mxGeometry x="59" y="210" width="70" height="30" as="geometry" />
        </mxCell>
        <mxCell id="01-Ti9sMeaYDdyQARpEQ-90" value="" style="endArrow=none;html=1;rounded=0;exitX=1;exitY=0.5;exitDx=0;exitDy=0;entryX=0;entryY=0;entryDx=0;entryDy=0;" edge="1" parent="1" source="01-Ti9sMeaYDdyQARpEQ-89" target="01-Ti9sMeaYDdyQARpEQ-82">
          <mxGeometry width="50" height="50" relative="1" as="geometry">
            <mxPoint x="489" y="310" as="sourcePoint" />
            <mxPoint x="539" y="260" as="targetPoint" />
          </mxGeometry>
        </mxCell>
        <mxCell id="01-Ti9sMeaYDdyQARpEQ-91" value="Finalizacion" style="ellipse;whiteSpace=wrap;html=1;" vertex="1" parent="1">
          <mxGeometry x="20" y="395" width="80" height="25" as="geometry" />
        </mxCell>
        <mxCell id="01-Ti9sMeaYDdyQARpEQ-92" value="" style="endArrow=none;html=1;rounded=0;exitX=1;exitY=0.5;exitDx=0;exitDy=0;entryX=0;entryY=0;entryDx=0;entryDy=0;" edge="1" parent="1" source="01-Ti9sMeaYDdyQARpEQ-91" target="01-Ti9sMeaYDdyQARpEQ-59">
          <mxGeometry width="50" height="50" relative="1" as="geometry">
            <mxPoint x="489" y="410" as="sourcePoint" />
            <mxPoint x="539" y="360" as="targetPoint" />
          </mxGeometry>
        </mxCell>
        <mxCell id="01-Ti9sMeaYDdyQARpEQ-94" value="Cant horas" style="ellipse;whiteSpace=wrap;html=1;" vertex="1" parent="1">
          <mxGeometry x="5" y="280" width="70" height="30" as="geometry" />
        </mxCell>
        <mxCell id="01-Ti9sMeaYDdyQARpEQ-95" value="" style="endArrow=none;html=1;rounded=0;exitX=1;exitY=0.5;exitDx=0;exitDy=0;entryX=0;entryY=0;entryDx=0;entryDy=0;" edge="1" parent="1" source="01-Ti9sMeaYDdyQARpEQ-94" target="01-Ti9sMeaYDdyQARpEQ-59">
          <mxGeometry width="50" height="50" relative="1" as="geometry">
            <mxPoint x="489" y="410" as="sourcePoint" />
            <mxPoint x="539" y="360" as="targetPoint" />
          </mxGeometry>
        </mxCell>
        <mxCell id="01-Ti9sMeaYDdyQARpEQ-96" value="reparado" style="rhombus;whiteSpace=wrap;html=1;" vertex="1" parent="1">
          <mxGeometry x="269" y="510" width="80" height="40" as="geometry" />
        </mxCell>
        <mxCell id="01-Ti9sMeaYDdyQARpEQ-97" value="" style="endArrow=classic;html=1;rounded=0;exitX=1;exitY=0.5;exitDx=0;exitDy=0;entryX=0;entryY=1;entryDx=0;entryDy=0;" edge="1" parent="1" source="01-Ti9sMeaYDdyQARpEQ-96" target="01-Ti9sMeaYDdyQARpEQ-14">
          <mxGeometry width="50" height="50" relative="1" as="geometry">
            <mxPoint x="489" y="510" as="sourcePoint" />
            <mxPoint x="539" y="460" as="targetPoint" />
          </mxGeometry>
        </mxCell>
        <mxCell id="01-Ti9sMeaYDdyQARpEQ-98" value="" style="endArrow=none;html=1;rounded=0;exitX=0;exitY=0.5;exitDx=0;exitDy=0;entryX=1;entryY=1;entryDx=0;entryDy=0;" edge="1" parent="1" source="01-Ti9sMeaYDdyQARpEQ-96" target="01-Ti9sMeaYDdyQARpEQ-1">
          <mxGeometry width="50" height="50" relative="1" as="geometry">
            <mxPoint x="489" y="510" as="sourcePoint" />
            <mxPoint x="539" y="460" as="targetPoint" />
          </mxGeometry>
        </mxCell>
        <mxCell id="01-Ti9sMeaYDdyQARpEQ-99" value="&lt;u&gt;pais&lt;/u&gt;" style="ellipse;whiteSpace=wrap;html=1;" vertex="1" parent="1">
          <mxGeometry x="646" y="270" width="39" height="20" as="geometry" />
        </mxCell>
        <mxCell id="01-Ti9sMeaYDdyQARpEQ-100" value="" style="endArrow=none;html=1;rounded=0;entryX=0.5;entryY=1;entryDx=0;entryDy=0;exitX=1;exitY=0;exitDx=0;exitDy=0;" edge="1" parent="1" source="01-Ti9sMeaYDdyQARpEQ-26" target="01-Ti9sMeaYDdyQARpEQ-99">
          <mxGeometry width="50" height="50" relative="1" as="geometry">
            <mxPoint x="489" y="410" as="sourcePoint" />
            <mxPoint x="539" y="360" as="targetPoint" />
          </mxGeometry>
        </mxCell>
      </root>
    </mxGraphModel>
  </diagram>
</mxfile>
